<svg xmlns="http://www.w3.org/2000/svg" xmlns:xlink="http://www.w3.org/1999/xlink"><symbol id="icon__calendar" viewBox="0 0 24 24"><path fill-rule="evenodd" clip-rule="evenodd" d="M5.996 2.246a3.75 3.75 0 00-3.75 3.75v12.008a3.75 3.75 0 003.75 3.75h12.008a3.75 3.75 0 003.75-3.75V5.996a3.75 3.75 0 00-3.75-3.75H5.996zm14.258 5.002V5.996a2.25 2.25 0 00-2.25-2.25H5.996a2.25 2.25 0 00-2.25 2.25v1.252h16.508zm-16.508 1.5h16.508v9.256a2.25 2.25 0 01-2.25 2.25H5.996a2.25 2.25 0 01-2.25-2.25V8.748z"/><path fill-rule="evenodd" clip-rule="evenodd" d="M17.807 10.945a.748.748 0 00-.555-.245.8.8 0 10.8.8.748.748 0 00-.245-.555z"/><path fill-rule="evenodd" clip-rule="evenodd" d="M16.502 11.45a.75.75 0 01.75-.75.8.8 0 01.8.8.75.75 0 01-1.305.505.748.748 0 01-.245-.555zM14.305 10.945a.748.748 0 00-.555-.245.8.8 0 10.8.8.748.748 0 00-.245-.555z"/><path fill-rule="evenodd" clip-rule="evenodd" d="M13 11.45a.75.75 0 01.75-.75.8.8 0 01.8.8.75.75 0 01-1.305.505.748.748 0 01-.245-.555zM10.803 10.945a.748.748 0 00-.555-.245.8.8 0 10.8.8.748.748 0 00-.245-.555z"/><path fill-rule="evenodd" clip-rule="evenodd" d="M9.498 11.45a.75.75 0 01.75-.75.8.8 0 01.8.8.75.75 0 01-1.304.505.748.748 0 01-.246-.555zM7.302 13.946a.748.748 0 00-.555-.245.8.8 0 10.8.8.748.748 0 00-.245-.555z"/><path fill-rule="evenodd" clip-rule="evenodd" d="M5.997 14.45a.75.75 0 01.75-.75.8.8 0 01.8.8.75.75 0 01-1.305.506.748.748 0 01-.245-.555zM10.803 13.946a.748.748 0 00-.555-.245.8.8 0 10.8.8.748.748 0 00-.245-.555z"/><path fill-rule="evenodd" clip-rule="evenodd" d="M9.498 14.45a.75.75 0 01.75-.75.8.8 0 01.8.8.75.75 0 01-1.304.506.748.748 0 01-.246-.555zM14.305 13.946a.748.748 0 00-.555-.245.8.8 0 10.8.8.748.748 0 00-.245-.555z"/><path fill-rule="evenodd" clip-rule="evenodd" d="M13 14.45a.75.75 0 01.75-.75.8.8 0 01.8.8.75.75 0 01-1.305.506.748.748 0 01-.245-.555zM17.807 13.946a.748.748 0 00-.555-.245.8.8 0 10.8.8.748.748 0 00-.245-.555z"/><path fill-rule="evenodd" clip-rule="evenodd" d="M16.502 14.45a.75.75 0 01.75-.75.8.8 0 01.8.8.75.75 0 01-1.305.506.748.748 0 01-.245-.555zM17.807 16.948a.748.748 0 00-.555-.246.8.8 0 10.8.8.748.748 0 00-.245-.554z"/><path fill-rule="evenodd" clip-rule="evenodd" d="M16.502 17.452a.75.75 0 01.75-.75.8.8 0 01.8.8.75.75 0 01-1.305.505.748.748 0 01-.245-.555zM14.305 16.948a.748.748 0 00-.555-.246.8.8 0 10.8.8.748.748 0 00-.245-.554z"/><path fill-rule="evenodd" clip-rule="evenodd" d="M13 17.452a.75.75 0 01.75-.75.8.8 0 01.8.8.75.75 0 01-1.305.505.748.748 0 01-.245-.555zM10.803 16.948a.748.748 0 00-.555-.246.8.8 0 10.8.8.748.748 0 00-.245-.554z"/><path fill-rule="evenodd" clip-rule="evenodd" d="M9.498 17.452a.75.75 0 01.75-.75.8.8 0 01.8.8.75.75 0 01-1.304.505.748.748 0 01-.246-.555zM7.302 16.948a.748.748 0 00-.555-.246.8.8 0 10.8.8.748.748 0 00-.245-.554z"/><path fill-rule="evenodd" clip-rule="evenodd" d="M5.997 17.452a.75.75 0 01.75-.75.8.8 0 01.8.8.75.75 0 01-1.305.505.748.748 0 01-.245-.555z"/></symbol><symbol id="icon__cap" viewBox="0 0 30 32"><path d="M0 19.968v-7.936c0-2.67 1.42-5.139 3.727-6.482l7.5-4.365a7.502 7.502 0 017.545 0l7.5 4.365A7.5 7.5 0 0130 12.032v7.936c0 2.67-1.42 5.139-3.727 6.482l-7.5 4.365a7.503 7.503 0 01-7.545 0l-7.5-4.365A7.5 7.5 0 010 19.968z"/></symbol><symbol id="icon__cross" viewBox="0 0 24 24"><path fill-rule="evenodd" clip-rule="evenodd" d="M19.071 19.071a1 1 0 000-1.414L13.414 12l5.657-5.657a1 1 0 00-1.414-1.414L12 10.586 6.343 4.929A1 1 0 004.93 6.343L10.586 12l-5.657 5.657a1 1 0 001.414 1.414L12 13.414l5.657 5.657a1 1 0 001.414 0z"/></symbol><symbol id="icon__logout" viewBox="0 0 24 24"><path fill-rule="evenodd" clip-rule="evenodd" d="M6.686 4.75c-.785 0-1.407.627-1.407 1.385v11.73c0 .76.627 1.389 1.413 1.385l4.169-.019a.75.75 0 01.006 1.5L6.7 20.75c-1.604.008-2.921-1.28-2.921-2.885V6.135c0-1.6 1.308-2.885 2.907-2.885H11a.75.75 0 010 1.5H6.686z"/><path fill-rule="evenodd" clip-rule="evenodd" d="M16.53 7.47a.75.75 0 10-1.06 1.06l2.72 2.72H9.86a.75.75 0 000 1.5h8.33l-2.72 2.72a.75.75 0 101.06 1.06l4-4a.748.748 0 000-1.06l-4-4z"/></symbol><symbol id="icon__menu" viewBox="0 0 24 24"><path fill-rule="evenodd" clip-rule="evenodd" d="M3 6.25a.75.75 0 01.75-.75h16.5a.75.75 0 010 1.5H3.75A.75.75 0 013 6.25zM3 12.25a.75.75 0 01.75-.75h16.5a.75.75 0 010 1.5H3.75a.75.75 0 01-.75-.75zM3 18.25a.75.75 0 01.75-.75h16.5a.75.75 0 010 1.5H3.75a.75.75 0 01-.75-.75z"/></symbol><symbol id="icon__mob-device" viewBox="0 0 16 16"><path fill-rule="evenodd" clip-rule="evenodd" d="M6.13 12.5a.75.75 0 01.75-.75h2.24a.75.75 0 010 1.5H6.88a.75.75 0 01-.75-.75z"/><path fill-rule="evenodd" clip-rule="evenodd" d="M3.75 2.75c0-.462.462-1 1.25-1h.25V2.8c0 .611.437 1.35 1.25 1.35h3c.813 0 1.25-.739 1.25-1.35V1.75H11c.788 0 1.25.538 1.25 1v10.5c0 .462-.462 1-1.25 1H5c-.788 0-1.25-.538-1.25-1V2.75zm5.5-1v.9h-2.5v-.9h2.5zM10 .25h1c1.422 0 2.75 1.028 2.75 2.5v10.5c0 1.472-1.328 2.5-2.75 2.5H5c-1.422 0-2.75-1.028-2.75-2.5V2.75C2.25 1.278 3.578.25 5 .25h5z"/></symbol><symbol id="icon__plus" viewBox="0 0 16 16"><path fill-rule="evenodd" clip-rule="evenodd" d="M8 3a1 1 0 00-1 1v3H4a1 1 0 000 2h3v3a1 1 0 102 0V9h3a1 1 0 100-2H9V4a1 1 0 00-1-1z"/></symbol><symbol id="icon__search" viewBox="0 0 24 24"><path fill-rule="evenodd" clip-rule="evenodd" d="M10.521 2.25a8.271 8.271 0 105.295 14.627l3.654 3.653a.75.75 0 101.06-1.06l-3.653-3.654A8.271 8.271 0 0010.522 2.25zM3.75 10.521a6.771 6.771 0 1113.543 0 6.771 6.771 0 01-13.543 0z"/></symbol><symbol id="icon__settings" viewBox="0 0 24 24"><path fill-rule="evenodd" clip-rule="evenodd" d="M8.75 9a1.25 1.25 0 112.5 0 1.25 1.25 0 01-2.5 0zm-1.396-.75H5a.75.75 0 000 1.5h2.354a2.751 2.751 0 005.292 0H19a.75.75 0 000-1.5h-6.354a2.751 2.751 0 00-5.292 0zM13.75 16a1.25 1.25 0 112.5 0 1.25 1.25 0 01-2.5 0zm-1.396-.75H5a.75.75 0 000 1.5h7.354a2.751 2.751 0 005.293 0H19a.75.75 0 000-1.5h-1.354a2.751 2.751 0 00-5.293 0z"/></symbol><symbol id="icon__shewron_bold" viewBox="0 0 24 24"><path fill-rule="evenodd" clip-rule="evenodd" d="M7.293 9.293a1 1 0 011.414 0L12 12.586l3.293-3.293a1 1 0 111.414 1.414l-4 4a1 1 0 01-1.414 0l-4-4a1 1 0 010-1.414z"/></symbol><symbol id="icon__shewron_thin" viewBox="0 0 24 24"><path fill-rule="evenodd" clip-rule="evenodd" d="M4.47 7.47a.75.75 0 011.06 0L12 13.94l6.47-6.47a.75.75 0 111.06 1.06L12 16.06l-.53-.53-7-7a.75.75 0 010-1.06z"/></symbol><symbol id="icon__user" viewBox="0 0 16 16"><path fill-rule="evenodd" clip-rule="evenodd" d="M5.9 11.141c-2.004 0-3.059 1.382-3.059 2.659a.741.741 0 11-1.482 0c0-2.123 1.745-4.141 4.541-4.141h4.2c2.796 0 4.541 2.018 4.541 4.141a.741.741 0 11-1.482 0c0-1.277-1.055-2.659-3.059-2.659H5.9zM8 2.75a2 2 0 100 4 2 2 0 000-4zm-3.5 2a3.5 3.5 0 117 0 3.5 3.5 0 01-7 0z"/></symbol><symbol id="icon__wallet" viewBox="0 0 24 24"><path fill-rule="evenodd" clip-rule="evenodd" d="M3.202 4.202A3.25 3.25 0 015.5 3.25H15A2.75 2.75 0 0117.75 6v.25H19A2.75 2.75 0 0121.75 9v9.5a3.25 3.25 0 01-3.25 3.25h-13a3.25 3.25 0 01-3.25-3.25v-12c0-.862.342-1.689.952-2.298zM3.75 7.75V18.5a1.75 1.75 0 001.75 1.75h13a1.75 1.75 0 001.75-1.75V9A1.25 1.25 0 0019 7.75H3.75zm12.5-1.5H3.768A1.75 1.75 0 015.5 4.75H15A1.25 1.25 0 0116.25 6v.25z"/><path fill-rule="evenodd" clip-rule="evenodd" d="M14.25 14a.75.75 0 01.75-.75h2a.75.75 0 010 1.5h-2a.75.75 0 01-.75-.75z"/></symbol><symbol id="logo" viewBox="0 0 75 19"><path fill-rule="evenodd" clip-rule="evenodd" d="M75 9.34v-.13h-3.368v.16c0 3.333-2.733 6.037-6.1 6.037-3.368 0-6.1-2.704-6.1-6.037 0-3.333 2.732-6.037 6.1-6.037h.1V0h-.1c-5.224 0-9.469 4.201-9.469 9.37s4.245 9.37 9.469 9.37C70.755 18.74 75 14.54 75 9.37v-.03zm-43.752-9l-6.09 18.06h3.479l.685-2.025c.101-.29.273-.469.646-.469h5.566c.373 0 .554.18.645.47l.686 2.025h3.478L34.253.339h-3.005zm3.176 12.423h-3.357c-.353 0-.555-.21-.434-.569l1.765-5.249c.161-.469.554-.469.705 0l1.745 5.249c.131.38-.07.569-.424.569zm16.235-1.547c.293.559.746.44.746-.18V.34h3.358v18.052h-4.064L44.902 7.524c-.293-.559-.747-.44-.747.18V18.4h-3.358V.339h4.266l5.596 10.877zm-33.426 3.393V.339h-3.358v18.062h10.79v-3.153h-6.776a.619.619 0 01-.656-.64zm-5.214-9.29c0 1.526-.665 2.774-1.825 3.612 1.382.918 2.209 2.475 2.209 4.22 0 3.035-2.189 5.25-5.113 5.25H0V.339h6.927c3.146 0 5.092 2.046 5.092 4.98zM3.832 3.313c-.293 0-.474.18-.474.469v3.433c0 .279.181.489.474.489h2.48c1.25 0 2.138-.948 2.138-2.196 0-1.227-.877-2.195-2.138-2.195h-2.48zm.04 12.074h2.49c1.483 0 2.4-1.028 2.41-2.375 0-1.327-.927-2.335-2.4-2.335h-2.5c-.302 0-.514.22-.514.53v3.671c0 .3.222.51.514.51z"/></symbol><view id="icon__shewron_thin-view" viewBox="0 0 24 24"/>
<view id="icon__search-view" viewBox="0 24 24 24"/>
<view id="icon__calendar-view" viewBox="0 48 24 24"/>
<view id="icon__cross-view" viewBox="0 72 24 24"/>
<view id="icon__settings-view" viewBox="0 96 24 24"/>

<use xlink:href="#icon__shewron_thin" style="fill:#222222" width="24" height="24" x="0" y="0" id="shewron_thin"/>
<use xlink:href="#icon__search" style="fill:#222222" width="24" height="24" x="0" y="24" id="search"/>
<use xlink:href="#icon__calendar" style="fill:#222222" width="24" height="24" x="0" y="48" id="calendar"/>
<use xlink:href="#icon__cross" style="fill:#222222" width="24" height="24" x="0" y="72" id="cross"/>
<use xlink:href="#icon__settings" style="fill:#222222" width="24" height="24" x="0" y="96" id="settings"/></svg>